<svg width="12" height="12" viewBox="0 0 12 12" fill="none" xmlns="http://www.w3.org/2000/svg">
<path d="M0.443182 6.33523V5.80682C0.917614 5.80682 1.24858 5.70739 1.43608 5.50852C1.62642 5.30966 1.72159 4.97727 1.72159 4.51136V3.14773C1.72159 2.75568 1.75852 2.41619 1.83239 2.12926C1.90909 1.84233 2.03267 1.60511 2.20312 1.41761C2.37358 1.23011 2.60085 1.09091 2.88494 1C3.16903 0.909091 3.51989 0.863636 3.9375 0.863636V1.69886C3.60795 1.69886 3.34801 1.75 3.15767 1.85227C2.97017 1.95455 2.83665 2.11364 2.7571 2.32955C2.6804 2.54261 2.64205 2.81534 2.64205 3.14773V4.85227C2.64205 5.07386 2.61222 5.27557 2.55256 5.45739C2.49574 5.6392 2.3892 5.79545 2.23295 5.92614C2.0767 6.05682 1.85369 6.15767 1.56392 6.22869C1.27699 6.29972 0.903409 6.33523 0.443182 6.33523ZM3.9375 11.7727C3.51989 11.7727 3.16903 11.7273 2.88494 11.6364C2.60085 11.5455 2.37358 11.4062 2.20312 11.2188C2.03267 11.0312 1.90909 10.794 1.83239 10.5071C1.75852 10.2202 1.72159 9.88068 1.72159 9.48864V8.125C1.72159 7.65909 1.62642 7.3267 1.43608 7.12784C1.24858 6.92898 0.917614 6.82955 0.443182 6.82955V6.30114C0.903409 6.30114 1.27699 6.33665 1.56392 6.40767C1.85369 6.47869 2.0767 6.57955 2.23295 6.71023C2.3892 6.84091 2.49574 6.99716 2.55256 7.17898C2.61222 7.3608 2.64205 7.5625 2.64205 7.78409V9.48864C2.64205 9.82102 2.6804 10.0938 2.7571 10.3068C2.83665 10.5199 2.97017 10.6776 3.15767 10.7798C3.34801 10.8849 3.60795 10.9375 3.9375 10.9375V11.7727ZM0.443182 6.82955V5.80682H1.44886V6.82955H0.443182ZM11.6261 6.30114V6.82955C11.1516 6.82955 10.8192 6.92898 10.6289 7.12784C10.4414 7.3267 10.3477 7.65909 10.3477 8.125V9.48864C10.3477 9.88068 10.3093 10.2202 10.2326 10.5071C10.1587 10.794 10.0366 11.0312 9.86612 11.2188C9.69567 11.4062 9.46839 11.5455 9.1843 11.6364C8.90021 11.7273 8.54936 11.7727 8.13175 11.7727V10.9375C8.46129 10.9375 8.71982 10.8849 8.90732 10.7798C9.09766 10.6776 9.23118 10.5199 9.30788 10.3068C9.38743 10.0938 9.4272 9.82102 9.4272 9.48864V7.78409C9.4272 7.5625 9.45561 7.3608 9.51243 7.17898C9.57209 6.99716 9.68004 6.84091 9.83629 6.71023C9.99254 6.57955 10.2141 6.47869 10.5011 6.40767C10.7908 6.33665 11.1658 6.30114 11.6261 6.30114ZM8.13175 0.863636C8.54936 0.863636 8.90021 0.909091 9.1843 1C9.46839 1.09091 9.69567 1.23011 9.86612 1.41761C10.0366 1.60511 10.1587 1.84233 10.2326 2.12926C10.3093 2.41619 10.3477 2.75568 10.3477 3.14773V4.51136C10.3477 4.97727 10.4414 5.30966 10.6289 5.50852C10.8192 5.70739 11.1516 5.80682 11.6261 5.80682V6.33523C11.1658 6.33523 10.7908 6.29972 10.5011 6.22869C10.2141 6.15767 9.99254 6.05682 9.83629 5.92614C9.68004 5.79545 9.57209 5.6392 9.51243 5.45739C9.45561 5.27557 9.4272 5.07386 9.4272 4.85227V3.14773C9.4272 2.81534 9.38743 2.54261 9.30788 2.32955C9.23118 2.11364 9.09766 1.95455 8.90732 1.85227C8.71982 1.75 8.46129 1.69886 8.13175 1.69886V0.863636ZM11.6261 5.80682V6.82955H10.6204V5.80682H11.6261Z" fill="black"/>
</svg>
