<svg width="84" height="84" viewBox="0 0 126 118" fill="none" xmlns="http://www.w3.org/2000/svg">
<ellipse cx="63" cy="59" rx="63" ry="59" fill="#4C4C4C"/>
<path fill-rule="evenodd" clip-rule="evenodd" d="M61.1149 44.7918C61.3289 44.3103 61.8064 44 62.3333 44C63.7478 44 65.1044 44.5619 66.1046 45.5621C67.1048 46.5623 67.6667 47.9188 67.6667 49.3333V53.3333H73.8732C74.4502 53.328 75.0215 53.4476 75.548 53.6839C76.0771 53.9213 76.5481 54.2709 76.9286 54.7084C77.3091 55.146 77.5899 55.6611 77.7516 56.2179C77.9132 56.7748 77.9519 57.3601 77.8649 57.9334L76.0249 69.9332C76.0249 69.9336 76.025 69.9329 76.0249 69.9332C75.8801 70.8866 75.3955 71.7567 74.6607 72.3813C73.9278 73.0043 72.9949 73.3422 72.0331 73.3333H53C51.9391 73.3333 50.9217 72.9119 50.1716 72.1618C49.4214 71.4116 49 70.3942 49 69.3333V60C49 58.9391 49.4214 57.9217 50.1716 57.1716C50.9217 56.4214 51.9391 56 53 56H56.1335L61.1149 44.7918ZM58.3333 57.6163L63.1438 46.7928C63.5456 46.921 63.9152 47.1439 64.219 47.4477C64.719 47.9478 65 48.6261 65 49.3333V54.6667C65 55.403 65.597 56 66.3333 56H73.88L73.8951 55.9999C74.0884 55.9977 74.2798 56.0376 74.4561 56.1167C74.6325 56.1959 74.7895 56.3124 74.9163 56.4583C75.0432 56.6041 75.1368 56.7758 75.1907 56.9614C75.2445 57.1469 75.2574 57.3418 75.2285 57.5327C75.2285 57.5325 75.2285 57.5329 75.2285 57.5327L73.3884 69.5334C73.3402 69.8514 73.1787 70.1412 72.9337 70.3494C72.6887 70.5577 72.3766 70.6704 72.0551 70.6667L58.3333 70.6667V57.6163ZM55.6667 70.6667V58.6667H53C52.6464 58.6667 52.3072 58.8071 52.0572 59.0572C51.8071 59.3072 51.6667 59.6464 51.6667 60V69.3333C51.6667 69.687 51.8071 70.0261 52.0572 70.2761C52.3072 70.5262 52.6464 70.6667 53 70.6667H55.6667Z" fill="#E9E9E9"/>
</svg>
