<svg xmlns="http://www.w3.org/2000/svg" xmlns:xlink="http://www.w3.org/1999/xlink" width="100" zoomAndPan="magnify" viewBox="0 0 375 374.999991" height="100" preserveAspectRatio="xMidYMid meet" version="1.0"><defs><clipPath id="942d89cbcc"><path d="M 128.390625 104.796875 L 178 104.796875 L 178 244 L 128.390625 244 Z M 128.390625 104.796875 " clip-rule="nonzero"/></clipPath><clipPath id="0d12b013ec"><path d="M 184 131 L 234 131 L 234 270.546875 L 184 270.546875 Z M 184 131 " clip-rule="nonzero"/></clipPath><clipPath id="4f8664a79a"><path d="M 251 110 L 259.640625 110 L 259.640625 119 L 251 119 Z M 251 110 " clip-rule="nonzero"/></clipPath></defs><g clip-path="url(#942d89cbcc)"><path fill="#fafafa" d="M 128.433594 182.808594 L 128.433594 165.488281 C 131.933594 165.296875 134.574219 164.765625 136.347656 163.898438 C 138.125 163.035156 139.660156 161.582031 140.957031 159.535156 C 142.253906 157.492188 143.140625 154.929688 143.621094 151.851562 C 144.003906 149.542969 144.195312 145.523438 144.195312 139.800781 C 144.195312 130.46875 144.628906 123.960938 145.492188 120.28125 C 146.355469 116.601562 147.914062 113.640625 150.171875 111.40625 C 152.425781 109.167969 155.714844 107.402344 160.03125 106.101562 C 162.960938 105.234375 167.566406 104.804688 173.855469 104.804688 L 177.667969 104.804688 L 177.667969 122.050781 C 172.34375 122.050781 168.921875 122.351562 167.410156 122.949219 C 165.898438 123.554688 164.785156 124.464844 164.0625 125.691406 C 163.34375 126.917969 162.984375 129.023438 162.984375 132.007812 C 162.984375 135.039062 162.769531 140.785156 162.335938 149.253906 C 162.097656 154.015625 161.472656 157.875 160.464844 160.832031 C 159.457031 163.792969 158.171875 166.234375 156.613281 168.15625 C 155.054688 170.082031 152.664062 172.078125 149.449219 174.148438 C 152.28125 175.785156 154.597656 177.695312 156.398438 179.882812 C 158.199219 182.074219 159.574219 184.730469 160.535156 187.859375 C 161.496094 190.984375 162.121094 195.171875 162.40625 200.414062 C 162.742188 208.398438 162.910156 213.496094 162.910156 215.710938 C 162.910156 218.882812 163.296875 221.097656 164.0625 222.347656 C 164.832031 223.597656 165.996094 224.550781 167.554688 225.199219 C 169.113281 225.847656 172.484375 226.171875 177.667969 226.171875 L 177.667969 243.492188 L 173.855469 243.492188 C 167.375 243.492188 162.40625 242.972656 158.953125 241.941406 C 155.496094 240.90625 152.582031 239.183594 150.207031 236.78125 C 147.832031 234.375 146.234375 231.402344 145.417969 227.867188 C 144.601562 224.332031 144.195312 218.765625 144.195312 211.164062 C 144.195312 202.3125 143.8125 196.5625 143.042969 193.917969 C 141.988281 190.070312 140.390625 187.316406 138.257812 185.65625 C 136.121094 183.996094 132.84375 183.046875 128.433594 182.808594 " fill-opacity="1" fill-rule="nonzero"/></g><path fill="#5271ff" d="M 237.640625 140.730469 L 226.375 140.730469 L 226.375 129.4375 L 237.640625 129.4375 L 237.640625 140.730469 " fill-opacity="1" fill-rule="nonzero"/><path fill="#5271ff" d="M 234.980469 163.316406 L 226.375 163.316406 L 226.375 154.6875 L 234.980469 154.6875 L 234.980469 163.316406 " fill-opacity="1" fill-rule="nonzero"/><g clip-path="url(#0d12b013ec)"><path fill="#5271ff" d="M 202.203125 149.359375 L 202.203125 140.730469 L 210.8125 140.730469 L 210.8125 149.359375 Z M 224.101562 189.703125 C 221.941406 188.042969 220.332031 185.289062 219.277344 181.441406 C 218.695312 179.269531 218.351562 175.109375 218.238281 168.964844 L 210.8125 168.964844 L 210.8125 157.667969 L 218.074219 157.667969 C 217.894531 153.316406 217.515625 149.921875 216.9375 147.488281 C 216.097656 143.953125 214.5 140.972656 212.152344 138.542969 C 209.800781 136.113281 206.894531 134.394531 203.441406 133.382812 C 199.984375 132.371094 195.019531 131.867188 188.539062 131.867188 L 184.722656 131.867188 L 184.722656 149.113281 C 190.148438 149.113281 193.636719 149.4375 195.199219 150.085938 C 196.757812 150.738281 197.835938 151.664062 198.4375 152.863281 C 199.035156 154.066406 199.359375 156.472656 199.410156 160.082031 C 199.648438 171.53125 200.03125 178.9375 200.5625 182.304688 C 201.375 187.214844 202.910156 191.253906 205.167969 194.429688 C 206.800781 196.640625 209.390625 198.902344 212.941406 201.210938 C 210.207031 202.796875 207.960938 204.636719 206.210938 206.730469 C 204.460938 208.824219 203.054688 211.375 202 214.378906 C 200.945312 217.386719 200.296875 221.390625 200.058594 226.394531 C 199.671875 234.667969 199.46875 240.273438 199.445312 243.207031 C 199.421875 246.140625 199.035156 248.222656 198.292969 249.449219 C 197.546875 250.675781 196.386719 251.613281 194.800781 252.265625 C 193.21875 252.914062 189.859375 253.238281 184.722656 253.238281 L 184.722656 270.554688 L 188.539062 270.554688 C 194.824219 270.554688 199.433594 270.121094 202.359375 269.257812 C 206.726562 267.957031 210.039062 266.191406 212.296875 263.953125 C 214.550781 261.714844 216.097656 258.746094 216.9375 255.039062 C 217.777344 251.335938 218.199219 244.820312 218.199219 235.484375 C 218.199219 229.808594 218.390625 225.816406 218.773438 223.507812 C 219.300781 220.429688 220.203125 217.867188 221.472656 215.824219 C 222.742188 213.777344 224.269531 212.324219 226.042969 211.457031 C 227.816406 210.589844 230.460938 210.0625 233.960938 209.871094 L 233.960938 192.550781 C 229.546875 192.3125 226.261719 191.359375 224.101562 189.703125 " fill-opacity="1" fill-rule="nonzero"/></g><g clip-path="url(#4f8664a79a)"><path fill="#5271ff" d="M 259.609375 118.792969 L 251 118.792969 L 251 110.164062 L 259.609375 110.164062 L 259.609375 118.792969 " fill-opacity="1" fill-rule="nonzero"/></g><path fill="#5271ff" d="M 216.445312 129.4375 L 200.375 129.4375 L 200.375 113.328125 L 216.445312 113.328125 L 216.445312 129.4375 " fill-opacity="1" fill-rule="nonzero"/></svg>