<svg width="84" height="84" viewBox="0 0 126 118" fill="none" xmlns="http://www.w3.org/2000/svg">
<ellipse cx="63" cy="59" rx="63" ry="59" fill="#4C4C4C"/>
<path fill-rule="evenodd" clip-rule="evenodd" d="M48.9526 63.9526C50.2029 62.7024 51.8986 62 53.6667 62H63C64.7681 62 66.4638 62.7024 67.714 63.9526C68.9643 65.2029 69.6667 66.8986 69.6667 68.6667V71.3333C69.6667 72.0697 69.0697 72.6667 68.3333 72.6667C67.597 72.6667 67 72.0697 67 71.3333V68.6667C67 67.6058 66.5786 66.5884 65.8284 65.8382C65.0783 65.0881 64.0609 64.6667 63 64.6667H53.6667C52.6058 64.6667 51.5884 65.0881 50.8382 65.8382C50.0881 66.5884 49.6667 67.6058 49.6667 68.6667V71.3333C49.6667 72.0697 49.0697 72.6667 48.3333 72.6667C47.597 72.6667 47 72.0697 47 71.3333V68.6667C47 66.8986 47.7024 65.2029 48.9526 63.9526Z" fill="#E9E9E9"/>
<path fill-rule="evenodd" clip-rule="evenodd" d="M58.3334 48.6667C56.1243 48.6667 54.3334 50.4575 54.3334 52.6667C54.3334 54.8758 56.1243 56.6667 58.3334 56.6667C60.5426 56.6667 62.3334 54.8758 62.3334 52.6667C62.3334 50.4575 60.5426 48.6667 58.3334 48.6667ZM51.6667 52.6667C51.6667 48.9848 54.6515 46 58.3334 46C62.0153 46 65.0001 48.9848 65.0001 52.6667C65.0001 56.3486 62.0153 59.3333 58.3334 59.3333C54.6515 59.3333 51.6667 56.3486 51.6667 52.6667Z" fill="#E9E9E9"/>
<path fill-rule="evenodd" clip-rule="evenodd" d="M73.6666 52.6667C74.403 52.6667 74.9999 53.2637 74.9999 54.0001V62.0001C74.9999 62.7365 74.403 63.3334 73.6666 63.3334C72.9302 63.3334 72.3333 62.7365 72.3333 62.0001V54.0001C72.3333 53.2637 72.9302 52.6667 73.6666 52.6667Z" fill="#E9E9E9"/>
<path fill-rule="evenodd" clip-rule="evenodd" d="M68.3333 58.0001C68.3333 57.2637 68.9302 56.6667 69.6666 56.6667H77.6666C78.403 56.6667 78.9999 57.2637 78.9999 58.0001C78.9999 58.7365 78.403 59.3334 77.6666 59.3334H69.6666C68.9302 59.3334 68.3333 58.7365 68.3333 58.0001Z" fill="#E9E9E9"/>
</svg>
