<svg width="84" height="84" viewBox="0 0 126 118" fill="none" xmlns="http://www.w3.org/2000/svg">
<ellipse cx="63" cy="59" rx="63" ry="59" fill="#4C4C4C"/>
<path fill-rule="evenodd" clip-rule="evenodd" d="M62.6667 46.6667C56.0392 46.6667 50.6667 52.0392 50.6667 58.6667C50.6667 65.2941 56.0392 70.6667 62.6667 70.6667C69.2941 70.6667 74.6667 65.2941 74.6667 58.6667C74.6667 52.0392 69.2941 46.6667 62.6667 46.6667ZM48 58.6667C48 50.5665 54.5665 44 62.6667 44C70.7668 44 77.3333 50.5665 77.3333 58.6667C77.3333 66.7668 70.7668 73.3333 62.6667 73.3333C54.5665 73.3333 48 66.7668 48 58.6667Z" fill="#E9E9E9"/>
<path fill-rule="evenodd" clip-rule="evenodd" d="M58.3959 60.5279C57.953 59.9436 57.1207 59.8263 56.5334 60.2667C55.9443 60.7086 55.8249 61.5443 56.2667 62.1334L57.3334 61.3334C56.2667 62.1334 56.2671 62.1338 56.2674 62.1343L56.2681 62.1352L56.2696 62.1372L56.2733 62.1421L56.2829 62.1546L56.3113 62.191C56.3343 62.22 56.3654 62.2585 56.4046 62.3052C56.4828 62.3983 56.5934 62.5245 56.7353 62.6726C57.0181 62.9677 57.4313 63.3563 57.9658 63.7451C59.0298 64.5188 60.6327 65.3334 62.6667 65.3334C64.7008 65.3334 66.3037 64.5188 67.3676 63.7451C67.9022 63.3563 68.3154 62.9677 68.5981 62.6726C68.7401 62.5245 68.8507 62.3983 68.9289 62.3052C68.9681 62.2585 68.9992 62.22 69.0222 62.191L69.0506 62.1546L69.0602 62.1421L69.0639 62.1372L69.0654 62.1352L69.0661 62.1343C69.0664 62.1338 69.0667 62.1334 68.0001 61.3334L69.0667 62.1334C69.5086 61.5443 69.3892 60.7086 68.8001 60.2667C68.2128 59.8263 67.3805 59.9436 66.9376 60.5279L66.9314 60.5358C66.9235 60.5458 66.9084 60.5646 66.8863 60.5908C66.8421 60.6435 66.7705 60.7256 66.6728 60.8275C66.4764 61.0325 66.1813 61.3105 65.7992 61.5884C65.0298 62.148 63.966 62.6667 62.6667 62.6667C61.3675 62.6667 60.3037 62.148 59.5343 61.5884C59.1522 61.3105 58.857 61.0325 58.6606 60.8275C58.563 60.7256 58.4914 60.6435 58.4472 60.5908C58.4251 60.5646 58.41 60.5458 58.4021 60.5358L58.3959 60.5279Z" fill="#E9E9E9"/>
<path fill-rule="evenodd" clip-rule="evenodd" d="M57.3335 54.6668C57.3335 53.9304 57.9304 53.3335 58.6668 53.3335H58.6802C59.4165 53.3335 60.0135 53.9304 60.0135 54.6668C60.0135 55.4032 59.4165 56.0002 58.6802 56.0002H58.6668C57.9304 56.0002 57.3335 55.4032 57.3335 54.6668Z" fill="#E9E9E9"/>
<path fill-rule="evenodd" clip-rule="evenodd" d="M65.3335 54.6668C65.3335 53.9304 65.9304 53.3335 66.6668 53.3335H66.6802C67.4165 53.3335 68.0135 53.9304 68.0135 54.6668C68.0135 55.4032 67.4165 56.0002 66.6802 56.0002H66.6668C65.9304 56.0002 65.3335 55.4032 65.3335 54.6668Z" fill="#E9E9E9"/>
</svg>
